<svg xmlns="http://www.w3.org/2000/svg" width="1119" height="71" stroke="#000" stroke-linecap="round" stroke-linejoin="round" fill="#000" fill-rule="evenodd"><path d="M.5.5h94.7615H298v38.1818h-27.0318V6.8636h-56.7668V70.5h41.8993V38.6818h-95.9629-43.2509V6.8636H47.9558V70.5h48.6573V38.6818H27.682V70.5H.5"/><path d="M578 .5h-94.7615H280.5v38.1818h27.0318V6.8636h56.7668V70.5h-41.8993V38.6818h95.9629 43.2509V6.8636h68.9311V70.5h-48.6573V38.6818h68.9311V70.5H578"/><path d="M525.5.5h94.7615H823v38.1818h-27.0318V6.8636h-56.7668V70.5h41.8993V38.6818h-95.9629-43.2509V6.8636h-68.9311V70.5h48.6573V38.6818H552.682V70.5H525.5"/><path d="M1118 .5h-94.7615H820.5v38.1818h27.0318V6.8636h56.7668V70.5h-41.8993V38.6818h95.9629 43.2509V6.8636h68.9311V70.5h-48.6573V38.6818h68.9311V70.5H1118"/></svg>