<svg xmlns="http://www.w3.org/2000/svg" width="1118" height="238" stroke="#000" stroke-linecap="round" stroke-linejoin="round" fill="#000" fill-rule="evenodd"><path d="M.5 2.5Q.5 16 3 31q3.5 18.5 8.5 26.5l11.5 23 42.5 40 215 52.5 4.81-22.5Q.5 150.5.5.5v2.1875"/><path d="M.5 4.5Q2 29 3 29l3.5 14 5.75 15 7 13.25 7 9.5 6 6.25L44.5 98l19.75 13.25 13 8 15.25 5.25L136 137l12.5 3.5 62 10 64 1 21-1 79.75 45Q.5 195.5.5.5v2.25.625l.0312 1.2812M380.5 195.5l24.4594-1.1748"/><path d="M285.25 150.5h5.25l42 22.5 30 1 10.5 20-55-21.5z"/><path d="M379.5 174H355l20 21.5c3.2812.9375 2.5-1 5-1zm719.3521-12.7028Q1028.616 98.144 730.5 90.5q385 0 385 65c0 10-5 17-6 18l-.5-19.5z"/><path d="M290.5 170.5v-20h135c83.144 0 129.9042 16.277 172.1236 34.5854zm818-16l-9.6479 6.7972q6.3584 5.7172 10.8492 11.8892z"/><path d="M1110 194l-.2987-20.8136q10.7986 12.3135 5.7986 32.3135-26 40-310 30c-66.044 0-109.1311-10.2701-145.2209-23.6706L683 215.5l125 5h97.5H1068l42.5-15z"/><path d="M1110.5 205.5l-.8057-32.3213Q1068.222 215.5001 730.5 215.5001l-70.2403-3.6756L683 215.5l142.5 5H988h80z"/><path d="M598 200.5l-.3763-15.4147c20.7238 8.9868 40.3536 18.4631 62.6554 26.744L597.5 200.5m-192-29h-29l.25 24.25q0-.049 28.2352-1.426z"/><path d="M404.5 172.5h82l90 11.5 21 1.5.5 15 62.2598 11.3244c-63.3839-7.2947-149.441-21.2624-255.3004-17.4993z"/></svg>