<svg xmlns="http://www.w3.org/2000/svg" width="1116" height="518" stroke="#000" stroke-linecap="round" stroke-linejoin="round" fill="#fff" fill-rule="evenodd"><g transform="matrix(-1 0 0 -1 1115.5 517.5)" fill="#85004d" stroke="#85004d"><path d="M0 2.662q0 17.9679 2.4965 37.9322 3.495 24.6226 8.4879 35.2703l11.4837 30.6119 42.4398 53.2381 214.6953 69.8751 4.8032-29.9465Q0 199.6431 0 .0001v2.9115"/><path d="M.0001 5.3239Q1.498 37.9322 2.4965 37.9322l3.4951 18.6334 5.7418 19.9643 6.9901 17.6351 6.9901 12.6441 5.9915 8.3184 12.2326 14.6405 19.722 17.6352 12.9816 10.6476 15.2284 6.9875 43.4384 16.6369 12.4822 4.6583 61.9122 13.3096 63.9093 1.3309 20.9702-1.3309 79.637 59.8929Q.0001 259.536.0001 0v2.9947.8318l.0311 1.7052M379.4615 259.536a735.666 735.666 0 0 1 24.4247-1.5637"/><path d="M284.3465 199.643h5.2426l41.9404 29.9465 29.9575 1.3309 10.4851 26.6191-54.922-28.6155z"/><path d="M378.4629 230.9205h-24.4653l19.9717 28.6155c3.2765 1.2478 2.4964-1.331 4.9929-1.331zm718.3327-16.9069q-70.1366-84.054-367.8301-94.2278 384.4544 0 384.4544 86.512c0 13.3095-4.9929 22.6262-5.9915 23.9572l-.4993-25.9536z"/><path d="M289.589 226.2622v-26.6191h134.8087c83.0261 0 129.7201 21.6639 171.8796 46.0316zm816.8407-21.2954l-9.6342 9.0468q6.3494 7.6092 10.8338 15.8239z"/><path d="M1107.9277 257.5395l-.2983-27.7019q10.7833 16.3887 5.7904 43.0078-25.9632 53.2381-309.5607 39.9286c-65.9504 0-108.9764-13.6691-145.0151-31.5045l22.6888 4.8855 124.8229 6.6548h97.3618 162.2697l42.4398-19.9643z"/><path d="M1108.4269 272.8455l-.8045-43.0182q-41.4136 56.3278-378.657 56.3278l-70.1407-4.892 22.7081 4.8919 142.298 6.6548h162.2697 79.8867z"/><path d="M596.6533 266.1908l-.3758-20.5163c20.6945 11.961 40.2964 24.5735 62.5666 35.595l-62.6901-15.0787m-191.728-38.5977h-28.9589l.2496 32.2756q0-.0652 28.1952-1.8979z"/><path d="M403.4275 228.924h81.8838l89.8724 15.306 20.9703 1.9964.4993 19.9643 62.1715 15.0723c-63.294-9.709-149.2292-28.2993-254.9386-23.2908z"/></g><g fill="#000"><path d="M8.9175 3.2595q0 18.6266 2.4776 39.3228 3.4687 25.5253 8.4239 36.5633l11.397 31.7342 42.1194 55.1899 213.0745 72.4367 4.7669-31.0443Q8.9175 207.4621 8.9175.5v3.0182"/><path d="M8.9176 6.0189q1.4866 33.8038 2.4776 33.8038l3.4687 19.3165 5.6985 20.6962 6.9373 18.2816 6.9373 13.1076 5.9463 8.6234 12.1403 15.1773 19.5731 18.2816 12.8835 11.038 15.1135 7.2437 43.1104 17.2468 12.388 4.8291 61.4448 13.7975 63.4268 1.3797 20.8119-1.3797 79.0358 62.0886Q8.9176 269.5506 8.9176.4999v3.1045.8623l.0309 1.7677m376.5659 263.3163c8.1925-.6913 16.273-1.2267 24.2403-1.621"/><path d="M291.1174 207.4621h5.203l41.6238 31.0443 29.7314 1.3798 10.4059 27.5949-54.5074-29.6646z"/><path d="M384.5233 239.8861h-24.2806l19.8209 29.6646c3.2518 1.2935 2.4776-1.3798 4.9552-1.3798zm712.9097-17.5267q-69.6071-87.1354-365.0532-97.6822 381.552 0 381.552 89.6836c0 13.7974-4.9552 23.4557-5.9463 24.8354l-.4955-26.9051z"/><path d="M296.3204 235.057v-27.5949h133.791c82.3993 0 128.7407 22.4581 170.582 47.7191zm810.6741-22.076l-9.5615 9.3784q6.3014 7.8883 10.752 16.4041z"/><path d="M1108.4812 267.4811l-.2961-28.7175q10.7019 16.9895 5.7467 44.5845-25.7671 55.1898-307.2236 41.3924c-65.4525 0-108.1538-14.1702-143.9204-32.6595l22.5175 5.0647 123.8805 6.8987h96.6268 161.0447l42.1194-20.6962z"/><path d="M1108.9766 283.3481l-.7985-44.5952q-41.1009 58.3928-375.7983 58.3928l-69.6112-5.0714 22.5366 5.0713 141.2238 6.8987h161.0447 79.2835z"/><path d="M601.0665 276.4494l-.3729-21.2684c20.5382 12.3995 39.9922 25.4744 62.0943 36.9l-62.2169-15.6316m-190.2805-40.0126h-28.7403l.2478 33.4589q0-.0676 27.9823-1.9676z"/><path d="M409.2995 237.8165h81.2656l89.194 15.8671 20.8119 2.0696.4955 20.6962 61.7022 15.6248c-62.8162-10.0648-148.1026-29.3367-253.0139-24.1446z"/></g></svg>