<svg xmlns="http://www.w3.org/2000/svg" width="1119" height="72" stroke="#fff" stroke-linecap="round" stroke-linejoin="round" fill="#fff" fill-rule="evenodd"><path d="M.5 70.5h94.7615H298V32.3182h-27.0318v31.8182h-56.7668V.5h41.8993v31.8182h-95.9629-43.2509v31.8182H47.9558V.5h48.6573v31.8182H27.682V.5H.5"/><path d="M578 70.5h-94.7615H280.5V32.3182h27.0318v31.8182h56.7668V.5h-41.8993v31.8182h95.9629 43.2509v31.8182h68.9311V.5h-48.6573v31.8182h68.9311V.5H578"/><path d="M525.5 70.5h94.7615H823V32.3182h-27.0318v31.8182h-56.7668V.5h41.8993v31.8182h-95.9629-43.2509v31.8182h-68.9311V.5h48.6573v31.8182H552.682V.5H525.5"/><path d="M1118 70.5h-94.7615H820.5V32.3182h27.0318v31.8182h56.7668V.5h-41.8993v31.8182h95.9629 43.2509v31.8182h68.9311V.5h-48.6573v31.8182h68.9311V.5H1118"/></svg>